<svg xmlns="http://www.w3.org/2000/svg" viewBox="78 13 452 575" width="128" height="128">
<g transform="translate(0,600) scale(0.100000,-0.100000)" stroke="none">
<path fill="#c160ef" d="M957 5813 c-11 -10 -8 -61 3 -68 5 -3 19 -25 30 -48 11 -23 35 -65
53 -94 46 -74 116 -195 159 -274 20 -38 50 -89 67 -115 18 -25 46 -74 63 -108
16 -33 36 -68 43 -76 15 -17 68 -110 89 -155 8 -17 30 -54 50 -82 20 -29 36
-56 36 -59 0 -9 91 -167 100 -174 3 -3 17 -27 30 -55 13 -27 41 -77 63 -110
21 -32 51 -84 67 -115 15 -30 44 -80 64 -110 20 -30 36 -58 36 -62 0 -21 73
-118 93 -123 12 -3 481 -4 1041 -3 948 3 1020 4 1030 20 11 18 -4 56 -59 143
-14 22 -38 65 -55 96 -16 31 -42 76 -58 100 -16 24 -48 80 -72 124 -23 44 -55
98 -71 119 -16 22 -29 44 -29 48 0 14 -89 165 -105 178 -8 7 -15 20 -15 29 0
9 -23 52 -51 95 -28 44 -66 111 -86 150 -20 39 -39 73 -43 76 -8 6 -100 166
-100 175 0 3 -16 27 -35 54 -19 27 -41 65 -49 83 -8 18 -33 62 -55 98 -22 36
-56 97 -76 135 -20 39 -47 80 -61 93 l-25 22 -1033 0 c-568 0 -1036 -3 -1039
-7z m2085 -70 c9 -10 35 -54 58 -98 24 -44 57 -102 75 -130 18 -27 48 -79 67
-115 19 -36 47 -85 63 -110 16 -25 45 -74 63 -110 19 -36 47 -84 63 -108 16
-24 41 -66 55 -93 13 -27 40 -73 58 -102 18 -29 48 -81 66 -117 18 -36 43 -79
56 -96 13 -16 30 -46 39 -65 9 -18 36 -65 60 -104 25 -38 53 -88 64 -111 10
-23 44 -81 73 -130 88 -142 123 -213 113 -221 -6 -5 -454 -7 -997 -5 -872 2
-988 4 -988 17 0 16 54 119 76 145 7 8 27 42 44 75 17 33 45 83 62 110 17 28
43 73 58 100 15 28 64 112 108 187 44 76 99 170 121 210 52 91 57 100 99 166
18 29 37 63 43 75 5 12 29 56 54 97 24 41 55 95 69 120 15 25 62 106 106 180
44 74 92 161 107 192 30 61 41 68 65 41z"/>
<path fill="#c160ef" d="M1857 3770 c-14 -11 -38 -46 -53 -78 -16 -31 -38 -70 -50 -87 -12
-16 -39 -61 -59 -100 -21 -38 -51 -90 -67 -114 -16 -24 -45 -73 -64 -110 -19
-36 -57 -102 -84 -146 -27 -44 -49 -84 -50 -89 0 -5 -16 -32 -35 -61 -19 -29
-49 -81 -67 -116 -18 -35 -43 -78 -54 -94 -12 -17 -38 -60 -57 -96 -20 -37
-50 -88 -66 -115 -17 -27 -42 -71 -57 -99 -15 -27 -52 -93 -83 -145 -31 -52
-63 -107 -71 -122 -8 -15 -36 -63 -62 -107 -50 -83 -61 -134 -32 -145 9 -3
475 -6 1036 -6 l1020 0 27 29 c15 16 42 60 61 97 18 38 41 78 51 89 18 22 61
96 92 160 10 22 29 54 42 70 12 17 39 62 59 100 20 39 59 106 86 150 27 44 49
84 50 89 0 5 17 34 37 65 21 31 51 83 68 116 16 33 45 82 63 108 17 26 32 52
32 56 0 5 8 19 19 32 10 13 22 35 26 49 4 14 20 41 35 60 15 19 44 69 65 110
21 41 40 77 44 80 14 10 91 149 91 163 0 8 7 20 15 27 24 20 85 134 85 158 0
12 -9 26 -19 32 -13 7 -354 10 -1034 10 -1003 0 -1015 0 -1040 -20z m2043 -35
c0 -8 -111 -209 -131 -237 -11 -14 -30 -49 -43 -78 -13 -28 -30 -58 -38 -68
-18 -22 -98 -158 -98 -168 0 -4 -17 -32 -37 -62 -20 -31 -52 -85 -71 -121 -19
-37 -49 -88 -66 -116 -18 -27 -43 -70 -56 -95 -13 -25 -48 -85 -77 -135 -29
-49 -53 -95 -53 -101 0 -6 -6 -17 -14 -23 -15 -12 -106 -166 -106 -178 0 -5
-15 -31 -33 -58 -19 -28 -46 -75 -62 -105 -45 -85 -107 -180 -118 -180 -13 0
-33 26 -57 75 -10 22 -33 60 -50 85 -16 25 -30 48 -30 52 0 4 -18 37 -41 75
-47 78 -49 81 -87 148 -15 28 -95 166 -178 308 -82 142 -156 270 -164 285 -8
15 -27 47 -41 72 -30 51 -58 99 -102 180 -16 30 -35 62 -42 70 -14 17 -105
180 -105 187 0 3 -8 17 -19 31 -26 37 -81 140 -81 152 0 7 355 10 1000 10 550
0 1000 -2 1000 -5z"/>
<path fill="#c160ef" d="M4178 3737 c-39 -45 -51 -63 -88 -137 -19 -36 -46 -83 -60 -105 -15
-22 -40 -65 -55 -95 -16 -30 -43 -77 -61 -105 -17 -27 -47 -79 -66 -115 -19
-36 -54 -96 -78 -135 -24 -38 -49 -85 -57 -103 -7 -18 -29 -55 -48 -81 -19
-27 -35 -52 -35 -56 0 -4 -8 -19 -19 -33 -10 -15 -22 -38 -26 -52 -4 -14 -20
-41 -35 -60 -15 -19 -44 -66 -64 -105 -20 -38 -51 -92 -68 -120 -17 -27 -42
-72 -56 -100 -14 -27 -28 -52 -31 -55 -10 -7 -86 -139 -105 -180 -9 -19 -30
-57 -48 -84 l-32 -49 21 -36 c11 -20 47 -84 81 -144 33 -59 70 -119 81 -134
12 -14 21 -31 21 -37 1 -6 23 -47 50 -91 27 -44 62 -102 76 -130 15 -27 53
-94 85 -147 33 -54 59 -101 59 -107 0 -5 16 -32 35 -60 19 -28 51 -81 71 -118
20 -38 52 -91 70 -119 19 -28 34 -55 34 -59 0 -5 31 -61 69 -124 157 -266 199
-338 215 -371 28 -59 85 -130 104 -130 11 0 26 16 40 42 23 45 53 99 140 246
28 49 52 93 52 97 0 5 11 22 23 39 23 30 49 74 109 186 17 30 36 62 43 70 7 8
28 44 46 80 18 36 50 90 69 120 20 30 47 78 60 105 13 28 27 52 30 55 9 7 100
165 100 174 0 4 11 22 24 39 14 18 36 55 51 82 46 88 87 160 100 175 7 8 24
38 38 65 14 28 46 84 71 125 54 87 58 120 20 176 -15 21 -45 73 -67 114 -22
41 -55 98 -73 125 -18 28 -37 59 -41 70 -14 35 -94 175 -104 180 -4 3 -17 25
-28 49 -10 24 -37 71 -59 104 -21 32 -52 86 -67 118 -15 33 -38 73 -51 89 -13
17 -42 67 -65 110 -22 44 -51 94 -63 110 -12 17 -36 57 -52 90 -17 33 -48 87
-69 120 -21 33 -52 85 -67 115 -15 30 -42 78 -59 105 -28 44 -65 110 -116 208
-19 36 -42 34 -75 -6z m74 -83 c18 -30 47 -81 64 -112 17 -31 45 -79 62 -107
17 -27 47 -80 66 -116 19 -37 48 -86 64 -110 16 -24 49 -80 72 -124 23 -44 48
-87 55 -95 7 -8 32 -51 55 -95 23 -44 52 -93 65 -110 12 -16 31 -51 42 -76 12
-26 38 -73 60 -105 21 -33 54 -88 72 -124 18 -36 39 -72 46 -80 12 -14 60 -99
93 -165 9 -16 30 -52 49 -80 18 -27 33 -53 33 -58 0 -4 11 -25 25 -45 14 -20
25 -47 25 -59 l0 -23 -970 -2 c-533 -1 -978 -2 -987 -2 -34 -2 -24 41 28 130
28 49 76 133 108 186 31 54 72 126 91 161 19 35 47 82 62 104 15 23 45 76 67
117 22 42 48 88 59 103 10 16 32 53 48 83 16 30 44 80 64 110 19 30 48 81 65
112 16 32 51 92 76 135 26 43 53 90 60 105 8 15 36 64 63 110 28 46 60 101 71
123 12 22 34 58 48 79 15 21 27 44 27 50 0 13 20 36 31 36 4 0 22 -25 41 -56z"/>
<path fill="#a60ee5" d="M2977 5702 c-15 -31 -63 -118 -107 -192 -44 -74 -91 -155 -106 -180
-14 -25 -45 -79 -69 -120 -25 -41 -49 -85 -54 -97 -6 -12 -25 -46 -43 -75 -42
-66 -47 -75 -99 -166 -22 -40 -77 -134 -121 -210 -44 -75 -93 -159 -108 -187
-15 -27 -41 -72 -58 -100 -17 -27 -45 -77 -62 -110 -17 -33 -37 -67 -44 -75
-22 -26 -76 -129 -76 -145 0 -13 116 -15 988 -17 543 -2 991 0 997 5 10 8 -25
79 -113 221 -29 49 -63 107 -73 130 -11 23 -39 73 -64 111 -24 39 -51 86 -60
104 -9 19 -26 49 -39 65 -13 17 -38 60 -56 96 -18 36 -48 88 -66 117 -18 29
-45 75 -58 102 -14 27 -39 69 -55 93 -16 24 -44 72 -63 108 -18 36 -47 85 -63
110 -16 25 -44 74 -63 110 -19 36 -49 88 -67 115 -18 28 -51 86 -75 130 -46
87 -67 115 -84 115 -6 -1 -23 -26 -39 -58z"/>
<path fill="#a60ee5" d="M1900 3730 c0 -12 55 -115 81 -152 11 -14 19 -28 19 -31 0 -7 91
-170 105 -187 7 -8 26 -40 42 -70 44 -81 72 -129 102 -180 14 -25 33 -57 41
-72 8 -15 82 -143 164 -285 83 -142 163 -280 178 -308 38 -67 40 -70 87 -148
23 -38 41 -71 41 -75 0 -4 14 -27 30 -52 17 -25 40 -63 50 -85 24 -49 44 -75
57 -75 11 0 73 95 118 180 16 30 43 77 62 105 18 27 33 53 33 58 0 12 91 166
106 178 8 6 14 17 14 23 0 6 24 52 53 101 29 50 64 110 77 135 13 25 38 68 56
95 17 28 47 79 66 116 19 36 51 90 71 121 20 30 37 58 37 62 0 10 80 146 98
168 8 10 25 40 38 68 13 29 32 64 43 78 20 28 131 229 131 237 0 3 -450 5
-1000 5 -645 0 -1000 -3 -1000 -10z"/>
<path fill="#a60ee5" d="M4192 3698 c-7 -7 -12 -17 -12 -24 0 -6 -12 -29 -27 -50 -14 -21 -36
-57 -48 -79 -11 -22 -43 -77 -71 -123 -27 -46 -55 -95 -63 -110 -7 -15 -34
-62 -60 -105 -25 -43 -60 -103 -76 -135 -17 -31 -46 -82 -65 -112 -20 -30 -48
-80 -64 -110 -16 -30 -38 -67 -48 -83 -11 -15 -37 -61 -59 -103 -22 -41 -52
-94 -67 -117 -15 -22 -43 -69 -62 -104 -19 -35 -60 -107 -91 -161 -32 -53 -80
-137 -108 -186 -52 -89 -62 -132 -28 -130 9 0 454 1 987 2 l970 2 0 23 c0 12
-11 39 -25 59 -14 20 -25 41 -25 45 0 5 -15 31 -33 58 -19 28 -40 64 -49 80
-33 66 -81 151 -93 165 -7 8 -28 44 -46 80 -18 36 -51 91 -72 124 -22 32 -48
79 -60 105 -11 25 -30 60 -42 76 -13 17 -42 66 -65 110 -23 44 -48 87 -55 95
-7 8 -32 51 -55 95 -23 44 -56 100 -72 124 -16 24 -45 73 -64 110 -19 36 -49
89 -66 116 -17 28 -45 76 -62 107 -54 99 -97 168 -105 168 -4 0 -12 -5 -19
-12z"/>
</g>
</svg>