<svg xmlns="http://www.w3.org/2000/svg" viewBox="115 276 798 470" width="128" height="128">
<g transform="translate(0.000000,1024.000000) scale(0.100000,-0.100000)"
fill="#1a1a1a" stroke="none">
<path d="M1271 7344 c-21 -26 -21 -33 -21 -744 0 -670 1 -722 18 -777 16 -49
181 -291 940 -1375 1030 -1470 988 -1415 1166 -1503 105 -53 198 -75 311 -75
114 0 206 23 315 76 79 39 110 62 181 133 68 69 94 103 127 171 81 164 76 95
82 1120 l5 915 27 68 c70 175 198 294 373 349 96 30 233 30 330 0 86 -26 175
-78 238 -140 27 -27 414 -568 885 -1241 593 -846 855 -1212 899 -1256 123
-121 270 -183 454 -192 136 -7 228 12 352 75 75 37 108 62 177 131 92 93 139
170 181 296 l24 70 5 915 c5 714 9 924 19 955 28 85 87 181 151 245 107 107
222 156 390 167 54 3 105 11 118 19 l22 14 0 785 c0 921 15 825 -131 825 -120
0 -214 -22 -329 -77 -79 -38 -107 -59 -180 -132 -92 -93 -139 -169 -181 -296
l-24 -70 -5 -915 -6 -915 -23 -62 c-63 -172 -198 -304 -371 -364 -91 -31 -238
-32 -335 -1 -93 29 -181 82 -248 151 -32 32 -405 556 -877 1231 -921 1318
-898 1289 -1071 1374 -110 54 -200 76 -320 76 -110 0 -215 -27 -322 -82 -113
-58 -236 -181 -294 -293 -83 -162 -77 -78 -83 -1110 l-6 -920 -23 -64 c-37
-100 -115 -206 -196 -268 -180 -137 -407 -158 -610 -56 -61 31 -138 92 -180
141 -17 20 -436 615 -930 1322 -494 707 -907 1295 -918 1308 -29 32 -79 30
-106 -4z"/>
</g>
</svg>
